<svg width="78" height="19" viewBox="0 0 78 19" fill="none" xmlns="http://www.w3.org/2000/svg">
<path d="M8.04008 8.72C7.90674 8 7.66675 7.45334 7.32008 7.08C6.98675 6.70667 6.47341 6.52 5.78008 6.52C5.32675 6.52 4.94674 6.6 4.64008 6.76C4.34674 6.90667 4.10675 7.09334 3.92008 7.32C3.74675 7.54667 3.62008 7.78667 3.54008 8.04C3.47341 8.29333 3.43341 8.52 3.42008 8.72H8.04008ZM3.42008 10.52C3.46008 11.44 3.69341 12.1067 4.12008 12.52C4.54674 12.9333 5.16008 13.14 5.96008 13.14C6.53341 13.14 7.02674 13 7.44008 12.72C7.85341 12.4267 8.10675 12.12 8.20008 11.8H10.7001C10.3001 13.04 9.68674 13.9267 8.86008 14.46C8.03341 14.9933 7.03341 15.26 5.86008 15.26C5.04674 15.26 4.31341 15.1333 3.66008 14.88C3.00674 14.6133 2.45341 14.24 2.00008 13.76C1.54674 13.28 1.19341 12.7067 0.940078 12.04C0.700078 11.3733 0.580078 10.64 0.580078 9.84C0.580078 9.06667 0.706745 8.34667 0.960078 7.68C1.21341 7.01334 1.57341 6.44 2.04008 5.96C2.50674 5.46667 3.06008 5.08 3.70008 4.8C4.35341 4.52 5.07341 4.38 5.86008 4.38C6.74008 4.38 7.50675 4.55334 8.16008 4.9C8.81341 5.23334 9.34674 5.68667 9.76008 6.26C10.1867 6.83334 10.4934 7.48667 10.6801 8.22C10.8667 8.95333 10.9334 9.72 10.8801 10.52H3.42008Z" fill="#2F2D51"/>
<path d="M12.4445 7.84C12.4845 7.17334 12.6511 6.62 12.9445 6.18C13.2378 5.74 13.6111 5.38667 14.0645 5.12C14.5178 4.85334 15.0245 4.66667 15.5845 4.56C16.1578 4.44 16.7311 4.38 17.3045 4.38C17.8245 4.38 18.3511 4.42 18.8845 4.5C19.4178 4.56667 19.9045 4.70667 20.3445 4.92C20.7845 5.13334 21.1445 5.43333 21.4245 5.82C21.7045 6.19334 21.8445 6.69334 21.8445 7.32V12.7C21.8445 13.1667 21.8711 13.6133 21.9245 14.04C21.9778 14.4667 22.0711 14.7867 22.2045 15H19.3245C19.2711 14.84 19.2245 14.68 19.1845 14.52C19.1578 14.3467 19.1378 14.1733 19.1245 14C18.6711 14.4667 18.1378 14.7933 17.5245 14.98C16.9111 15.1667 16.2845 15.26 15.6445 15.26C15.1511 15.26 14.6911 15.2 14.2645 15.08C13.8378 14.96 13.4645 14.7733 13.1445 14.52C12.8245 14.2667 12.5711 13.9467 12.3845 13.56C12.2111 13.1733 12.1245 12.7133 12.1245 12.18C12.1245 11.5933 12.2245 11.1133 12.4245 10.74C12.6378 10.3533 12.9045 10.0467 13.2245 9.82C13.5578 9.59333 13.9311 9.42667 14.3445 9.32C14.7711 9.2 15.1978 9.10667 15.6245 9.04C16.0511 8.97334 16.4711 8.92 16.8845 8.88C17.2978 8.84 17.6645 8.78 17.9845 8.7C18.3045 8.62 18.5578 8.50667 18.7445 8.36C18.9311 8.2 19.0178 7.97334 19.0045 7.68C19.0045 7.37333 18.9511 7.13334 18.8445 6.96C18.7511 6.77334 18.6178 6.63334 18.4445 6.54C18.2845 6.43333 18.0911 6.36667 17.8645 6.34C17.6511 6.3 17.4178 6.28 17.1645 6.28C16.6045 6.28 16.1645 6.4 15.8445 6.64C15.5245 6.88 15.3378 7.28 15.2845 7.84H12.4445ZM19.0045 9.94C18.8845 10.0467 18.7311 10.1333 18.5445 10.2C18.3711 10.2533 18.1778 10.3 17.9645 10.34C17.7645 10.38 17.5511 10.4133 17.3245 10.44C17.0978 10.4667 16.8711 10.5 16.6445 10.54C16.4311 10.58 16.2178 10.6333 16.0045 10.7C15.8045 10.7667 15.6245 10.86 15.4645 10.98C15.3178 11.0867 15.1978 11.2267 15.1045 11.4C15.0111 11.5733 14.9645 11.7933 14.9645 12.06C14.9645 12.3133 15.0111 12.5267 15.1045 12.7C15.1978 12.8733 15.3245 13.0133 15.4845 13.12C15.6445 13.2133 15.8311 13.28 16.0445 13.32C16.2578 13.36 16.4778 13.38 16.7045 13.38C17.2645 13.38 17.6978 13.2867 18.0045 13.1C18.3111 12.9133 18.5378 12.6933 18.6845 12.44C18.8311 12.1733 18.9178 11.9067 18.9445 11.64C18.9845 11.3733 19.0045 11.16 19.0045 11V9.94Z" fill="#2F2D51"/>
<path d="M26.2488 11.64C26.2488 11.9467 26.3088 12.2133 26.4288 12.44C26.5622 12.6533 26.7288 12.8333 26.9288 12.98C27.1288 13.1133 27.3555 13.2133 27.6088 13.28C27.8755 13.3467 28.1488 13.38 28.4288 13.38C28.6288 13.38 28.8355 13.36 29.0488 13.32C29.2755 13.2667 29.4755 13.1933 29.6488 13.1C29.8355 12.9933 29.9888 12.86 30.1088 12.7C30.2288 12.5267 30.2888 12.3133 30.2888 12.06C30.2888 11.6333 30.0022 11.3133 29.4288 11.1C28.8688 10.8867 28.0822 10.6733 27.0688 10.46C26.6555 10.3667 26.2488 10.26 25.8488 10.14C25.4622 10.0067 25.1155 9.84 24.8088 9.64C24.5022 9.42667 24.2555 9.16667 24.0688 8.86C23.8822 8.54 23.7888 8.15333 23.7888 7.7C23.7888 7.03333 23.9155 6.48667 24.1688 6.06C24.4355 5.63333 24.7822 5.3 25.2088 5.06C25.6355 4.80667 26.1155 4.63334 26.6488 4.54C27.1822 4.43334 27.7288 4.38 28.2888 4.38C28.8488 4.38 29.3888 4.43334 29.9088 4.54C30.4422 4.64667 30.9155 4.82667 31.3288 5.08C31.7422 5.33333 32.0822 5.67334 32.3488 6.1C32.6288 6.51334 32.7955 7.04 32.8488 7.68H30.1488C30.1088 7.13334 29.9022 6.76667 29.5288 6.58C29.1555 6.38 28.7155 6.28 28.2088 6.28C28.0488 6.28 27.8755 6.29333 27.6888 6.32C27.5022 6.33333 27.3288 6.37333 27.1688 6.44C27.0222 6.50667 26.8955 6.60667 26.7888 6.74C26.6822 6.86 26.6288 7.02667 26.6288 7.24C26.6288 7.49333 26.7222 7.7 26.9088 7.86C27.0955 8.02 27.3355 8.15334 27.6288 8.26C27.9355 8.35334 28.2822 8.44 28.6688 8.52C29.0555 8.6 29.4488 8.68667 29.8488 8.78C30.2622 8.87333 30.6622 8.98667 31.0488 9.12C31.4488 9.25333 31.8022 9.43334 32.1088 9.66C32.4155 9.87333 32.6622 10.1467 32.8488 10.48C33.0355 10.8 33.1288 11.2 33.1288 11.68C33.1288 12.36 32.9888 12.9333 32.7088 13.4C32.4422 13.8533 32.0888 14.22 31.6488 14.5C31.2088 14.78 30.7022 14.9733 30.1288 15.08C29.5688 15.2 28.9955 15.26 28.4088 15.26C27.8088 15.26 27.2222 15.2 26.6488 15.08C26.0755 14.96 25.5622 14.76 25.1088 14.48C24.6688 14.2 24.3022 13.8333 24.0088 13.38C23.7288 12.9133 23.5755 12.3333 23.5488 11.64H26.2488Z" fill="#2F2D51"/>
<path d="M39.891 16.28C39.5843 17.12 39.1577 17.72 38.611 18.08C38.0644 18.44 37.3043 18.62 36.331 18.62C36.0377 18.62 35.7444 18.6067 35.451 18.58C35.171 18.5667 34.8843 18.5467 34.591 18.52V16.18C34.8577 16.2067 35.131 16.2333 35.411 16.26C35.691 16.2867 35.971 16.2933 36.251 16.28C36.6243 16.24 36.8977 16.0933 37.071 15.84C37.2577 15.5867 37.351 15.3067 37.351 15C37.351 14.7733 37.311 14.56 37.231 14.36L33.611 4.66H36.631L38.971 11.74H39.011L41.271 4.66H44.211L39.891 16.28Z" fill="#2F2D51"/>
<path d="M53.1621 11.64C52.7621 12.7067 52.1688 13.5733 51.3821 14.24C50.6088 14.9067 49.6354 15.24 48.4621 15.24C47.7554 15.24 47.1488 15.1333 46.6421 14.92C46.1488 14.6933 45.7421 14.3867 45.4221 14C45.1021 13.6 44.8688 13.1333 44.7221 12.6C44.5754 12.0667 44.5021 11.48 44.5021 10.84C44.5021 10.04 44.6354 9.26 44.9021 8.5C45.1688 7.74 45.5421 7.06 46.0221 6.46C46.5154 5.86 47.1021 5.38 47.7821 5.02C48.4754 4.66 49.2354 4.48 50.0621 4.48C50.5954 4.48 51.0888 4.56667 51.5421 4.74C52.0088 4.9 52.4088 5.13334 52.7421 5.44C53.0754 5.73334 53.3288 6.09333 53.5021 6.52C53.6754 6.93333 53.7421 7.4 53.7021 7.92H52.9421C52.9421 7.04 52.6821 6.36 52.1621 5.88C51.6554 5.38667 50.9554 5.14 50.0621 5.14C49.3154 5.14 48.6421 5.31333 48.0421 5.66C47.4554 5.99333 46.9554 6.43333 46.5421 6.98C46.1288 7.52667 45.8088 8.14 45.5821 8.82C45.3688 9.48667 45.2621 10.1467 45.2621 10.8C45.2621 11.2933 45.3221 11.7667 45.4421 12.22C45.5621 12.6733 45.7488 13.08 46.0021 13.44C46.2554 13.7867 46.5754 14.0667 46.9621 14.28C47.3621 14.48 47.8354 14.58 48.3821 14.58C49.3421 14.58 50.1488 14.3133 50.8021 13.78C51.4688 13.2333 51.9754 12.52 52.3221 11.64H53.1621Z" fill="#2F2D51"/>
<path d="M55.6132 7.68C55.8799 6.53334 56.3932 5.71334 57.1532 5.22C57.9132 4.72667 58.8732 4.48 60.0332 4.48C60.2865 4.48 60.5932 4.51333 60.9532 4.58C61.3265 4.63334 61.6799 4.75333 62.0132 4.94C62.3465 5.11334 62.6265 5.36 62.8532 5.68C63.0932 5.98667 63.2132 6.4 63.2132 6.92C63.2132 7.14667 63.1799 7.44667 63.1132 7.82C63.0465 8.18 62.9732 8.54 62.8932 8.9C62.8132 9.26 62.7332 9.58667 62.6532 9.88C62.5865 10.1733 62.5465 10.36 62.5332 10.44C62.4665 10.7067 62.3932 11 62.3132 11.32C62.2332 11.64 62.1599 11.9533 62.0932 12.26C62.0265 12.5667 61.9665 12.8533 61.9132 13.12C61.8732 13.3733 61.8532 13.5733 61.8532 13.72C61.8532 13.9067 61.8999 14.0667 61.9932 14.2C62.0865 14.32 62.2265 14.38 62.4132 14.38C62.5199 14.38 62.6332 14.3667 62.7532 14.34C62.8732 14.3133 62.9865 14.2867 63.0932 14.26L62.9732 14.94C62.8265 14.98 62.6732 15.0067 62.5132 15.02C62.3665 15.0333 62.2265 15.04 62.0932 15.04C61.7465 15.04 61.4932 14.92 61.3332 14.68C61.1732 14.44 61.0932 14.2067 61.0932 13.98C61.0932 13.8733 61.1132 13.74 61.1532 13.58C61.1932 13.4067 61.2265 13.2533 61.2532 13.12H61.2132C61.0132 13.4933 60.7599 13.8133 60.4532 14.08C60.1465 14.3467 59.8199 14.5667 59.4732 14.74C59.1265 14.9133 58.7665 15.04 58.3932 15.12C58.0199 15.2 57.6665 15.24 57.3332 15.24C56.8932 15.24 56.4799 15.1867 56.0932 15.08C55.7065 14.9867 55.3665 14.8333 55.0732 14.62C54.7932 14.3933 54.5732 14.1067 54.4132 13.76C54.2399 13.4133 54.1532 12.9867 54.1532 12.48C54.1532 11.8267 54.2799 11.2933 54.5332 10.88C54.7865 10.4667 55.1199 10.1467 55.5332 9.92C55.9599 9.69333 56.4399 9.54 56.9732 9.46C57.5199 9.36667 58.0865 9.31333 58.6732 9.3C59.3932 9.27333 59.9932 9.22667 60.4732 9.16C60.9532 9.08 61.3399 8.96667 61.6332 8.82C61.9265 8.66 62.1332 8.45334 62.2532 8.2C62.3865 7.94667 62.4532 7.62667 62.4532 7.24C62.4532 6.6 62.2532 6.09334 61.8532 5.72C61.4665 5.33333 60.8065 5.14 59.8732 5.14C58.9532 5.14 58.1999 5.34667 57.6132 5.76C57.0265 6.16 56.6199 6.8 56.3932 7.68H55.6132ZM62.0532 9.2H62.0132C61.8665 9.34667 61.6599 9.46667 61.3932 9.56C61.1265 9.64 60.8399 9.71334 60.5332 9.78C60.2265 9.83333 59.9132 9.87333 59.5932 9.9C59.2865 9.92667 59.0265 9.94667 58.8132 9.96C58.3332 9.97334 57.8599 10.0067 57.3932 10.06C56.9265 10.1133 56.5065 10.2267 56.1332 10.4C55.7732 10.5733 55.4799 10.8267 55.2532 11.16C55.0265 11.48 54.9132 11.92 54.9132 12.48C54.9132 12.8667 54.9865 13.1933 55.1332 13.46C55.2799 13.7267 55.4732 13.9467 55.7132 14.12C55.9532 14.28 56.2265 14.4 56.5332 14.48C56.8532 14.5467 57.1865 14.58 57.5332 14.58C58.1465 14.58 58.6799 14.4733 59.1332 14.26C59.5999 14.0467 59.9932 13.76 60.3132 13.4C60.6465 13.0267 60.9199 12.6 61.1332 12.12C61.3599 11.64 61.5465 11.1333 61.6932 10.6L62.0532 9.2Z" fill="#2F2D51"/>
<path d="M67.2932 0.720001H68.0532L65.0732 15H64.3132L67.2932 0.720001Z" fill="#2F2D51"/>
<path d="M76.873 11.64C76.473 12.7067 75.8797 13.5733 75.093 14.24C74.3197 14.9067 73.3464 15.24 72.173 15.24C71.4664 15.24 70.8597 15.1333 70.3531 14.92C69.8597 14.6933 69.453 14.3867 69.133 14C68.813 13.6 68.5797 13.1333 68.433 12.6C68.2864 12.0667 68.213 11.48 68.213 10.84C68.213 10.04 68.3464 9.26 68.613 8.5C68.8797 7.74 69.253 7.06 69.733 6.46C70.2264 5.86 70.813 5.38 71.493 5.02C72.1864 4.66 72.9464 4.48 73.773 4.48C74.3064 4.48 74.7997 4.56667 75.253 4.74C75.7197 4.9 76.1197 5.13334 76.453 5.44C76.7864 5.73334 77.0397 6.09333 77.2131 6.52C77.3864 6.93333 77.453 7.4 77.413 7.92H76.653C76.653 7.04 76.393 6.36 75.873 5.88C75.3664 5.38667 74.6664 5.14 73.773 5.14C73.0264 5.14 72.353 5.31333 71.753 5.66C71.1664 5.99333 70.6664 6.43333 70.253 6.98C69.8397 7.52667 69.5197 8.14 69.293 8.82C69.0797 9.48667 68.973 10.1467 68.973 10.8C68.973 11.2933 69.033 11.7667 69.153 12.22C69.273 12.6733 69.4597 13.08 69.713 13.44C69.9664 13.7867 70.2864 14.0667 70.673 14.28C71.0731 14.48 71.5464 14.58 72.093 14.58C73.053 14.58 73.8597 14.3133 74.513 13.78C75.1797 13.2333 75.6864 12.52 76.0331 11.64H76.873Z" fill="#2F2D51"/>
</svg>
