<svg width="78" height="19" viewBox="0 0 78 19" fill="none" xmlns="http://www.w3.org/2000/svg">
<path d="M8.04 8.72C7.90667 8 7.66667 7.45333 7.32 7.08C6.98667 6.70667 6.47333 6.52 5.78 6.52C5.32667 6.52 4.94667 6.6 4.64 6.76C4.34667 6.90667 4.10667 7.09333 3.92 7.32C3.74667 7.54667 3.62 7.78667 3.54 8.04C3.47333 8.29333 3.43333 8.52 3.42 8.72H8.04ZM3.42 10.52C3.46 11.44 3.69333 12.1067 4.12 12.52C4.54667 12.9333 5.16 13.14 5.96 13.14C6.53333 13.14 7.02667 13 7.44 12.72C7.85333 12.4267 8.10667 12.12 8.2 11.8H10.7C10.3 13.04 9.68667 13.9267 8.86 14.46C8.03333 14.9933 7.03333 15.26 5.86 15.26C5.04667 15.26 4.31333 15.1333 3.66 14.88C3.00667 14.6133 2.45333 14.24 2 13.76C1.54667 13.28 1.19333 12.7067 0.94 12.04C0.7 11.3733 0.58 10.64 0.58 9.84C0.58 9.06667 0.706667 8.34667 0.96 7.68C1.21333 7.01333 1.57333 6.44 2.04 5.96C2.50667 5.46667 3.06 5.08 3.7 4.8C4.35333 4.52 5.07333 4.38 5.86 4.38C6.74 4.38 7.50667 4.55333 8.16 4.9C8.81333 5.23333 9.34667 5.68667 9.76 6.26C10.1867 6.83333 10.4933 7.48667 10.68 8.22C10.8667 8.95333 10.9333 9.72 10.88 10.52H3.42ZM12.4444 7.84C12.4844 7.17333 12.651 6.62 12.9444 6.18C13.2377 5.74 13.611 5.38667 14.0644 5.12C14.5177 4.85333 15.0244 4.66667 15.5844 4.56C16.1577 4.44 16.731 4.38 17.3044 4.38C17.8244 4.38 18.351 4.42 18.8844 4.5C19.4177 4.56667 19.9044 4.70667 20.3444 4.92C20.7844 5.13333 21.1444 5.43333 21.4244 5.82C21.7044 6.19333 21.8444 6.69333 21.8444 7.32V12.7C21.8444 13.1667 21.871 13.6133 21.9244 14.04C21.9777 14.4667 22.071 14.7867 22.2044 15H19.3244C19.271 14.84 19.2244 14.68 19.1844 14.52C19.1577 14.3467 19.1377 14.1733 19.1244 14C18.671 14.4667 18.1377 14.7933 17.5244 14.98C16.911 15.1667 16.2844 15.26 15.6444 15.26C15.151 15.26 14.691 15.2 14.2644 15.08C13.8377 14.96 13.4644 14.7733 13.1444 14.52C12.8244 14.2667 12.571 13.9467 12.3844 13.56C12.211 13.1733 12.1244 12.7133 12.1244 12.18C12.1244 11.5933 12.2244 11.1133 12.4244 10.74C12.6377 10.3533 12.9044 10.0467 13.2244 9.82C13.5577 9.59333 13.931 9.42667 14.3444 9.32C14.771 9.2 15.1977 9.10667 15.6244 9.04C16.051 8.97333 16.471 8.92 16.8844 8.88C17.2977 8.84 17.6644 8.78 17.9844 8.7C18.3044 8.62 18.5577 8.50667 18.7444 8.36C18.931 8.2 19.0177 7.97333 19.0044 7.68C19.0044 7.37333 18.951 7.13333 18.8444 6.96C18.751 6.77333 18.6177 6.63333 18.4444 6.54C18.2844 6.43333 18.091 6.36667 17.8644 6.34C17.651 6.3 17.4177 6.28 17.1644 6.28C16.6044 6.28 16.1644 6.4 15.8444 6.64C15.5244 6.88 15.3377 7.28 15.2844 7.84H12.4444ZM19.0044 9.94C18.8844 10.0467 18.731 10.1333 18.5444 10.2C18.371 10.2533 18.1777 10.3 17.9644 10.34C17.7644 10.38 17.551 10.4133 17.3244 10.44C17.0977 10.4667 16.871 10.5 16.6444 10.54C16.431 10.58 16.2177 10.6333 16.0044 10.7C15.8044 10.7667 15.6244 10.86 15.4644 10.98C15.3177 11.0867 15.1977 11.2267 15.1044 11.4C15.011 11.5733 14.9644 11.7933 14.9644 12.06C14.9644 12.3133 15.011 12.5267 15.1044 12.7C15.1977 12.8733 15.3244 13.0133 15.4844 13.12C15.6444 13.2133 15.831 13.28 16.0444 13.32C16.2577 13.36 16.4777 13.38 16.7044 13.38C17.2644 13.38 17.6977 13.2867 18.0044 13.1C18.311 12.9133 18.5377 12.6933 18.6844 12.44C18.831 12.1733 18.9177 11.9067 18.9444 11.64C18.9844 11.3733 19.0044 11.16 19.0044 11V9.94ZM26.2488 11.64C26.2488 11.9467 26.3088 12.2133 26.4288 12.44C26.5621 12.6533 26.7288 12.8333 26.9288 12.98C27.1288 13.1133 27.3554 13.2133 27.6088 13.28C27.8754 13.3467 28.1488 13.38 28.4288 13.38C28.6288 13.38 28.8354 13.36 29.0488 13.32C29.2754 13.2667 29.4754 13.1933 29.6488 13.1C29.8354 12.9933 29.9888 12.86 30.1088 12.7C30.2288 12.5267 30.2888 12.3133 30.2888 12.06C30.2888 11.6333 30.0021 11.3133 29.4288 11.1C28.8688 10.8867 28.0821 10.6733 27.0688 10.46C26.6554 10.3667 26.2488 10.26 25.8488 10.14C25.4621 10.0067 25.1154 9.84 24.8088 9.64C24.5021 9.42667 24.2554 9.16667 24.0688 8.86C23.8821 8.54 23.7888 8.15333 23.7888 7.7C23.7888 7.03333 23.9154 6.48667 24.1688 6.06C24.4354 5.63333 24.7821 5.3 25.2088 5.06C25.6354 4.80667 26.1154 4.63333 26.6488 4.54C27.1821 4.43333 27.7288 4.38 28.2888 4.38C28.8488 4.38 29.3888 4.43333 29.9088 4.54C30.4421 4.64667 30.9154 4.82667 31.3288 5.08C31.7421 5.33333 32.0821 5.67333 32.3488 6.1C32.6288 6.51333 32.7954 7.04 32.8488 7.68H30.1488C30.1088 7.13333 29.9021 6.76667 29.5288 6.58C29.1554 6.38 28.7154 6.28 28.2088 6.28C28.0488 6.28 27.8754 6.29333 27.6888 6.32C27.5021 6.33333 27.3288 6.37333 27.1688 6.44C27.0221 6.50667 26.8954 6.60667 26.7888 6.74C26.6821 6.86 26.6288 7.02667 26.6288 7.24C26.6288 7.49333 26.7221 7.7 26.9088 7.86C27.0954 8.02 27.3354 8.15333 27.6288 8.26C27.9354 8.35333 28.2821 8.44 28.6688 8.52C29.0554 8.6 29.4488 8.68667 29.8488 8.78C30.2621 8.87333 30.6621 8.98667 31.0488 9.12C31.4488 9.25333 31.8021 9.43333 32.1088 9.66C32.4154 9.87333 32.6621 10.1467 32.8488 10.48C33.0354 10.8 33.1288 11.2 33.1288 11.68C33.1288 12.36 32.9888 12.9333 32.7088 13.4C32.4421 13.8533 32.0888 14.22 31.6488 14.5C31.2088 14.78 30.7021 14.9733 30.1288 15.08C29.5688 15.2 28.9954 15.26 28.4088 15.26C27.8088 15.26 27.2221 15.2 26.6488 15.08C26.0754 14.96 25.5621 14.76 25.1088 14.48C24.6688 14.2 24.3021 13.8333 24.0088 13.38C23.7288 12.9133 23.5754 12.3333 23.5488 11.64H26.2488ZM39.8909 16.28C39.5843 17.12 39.1576 17.72 38.6109 18.08C38.0643 18.44 37.3043 18.62 36.3309 18.62C36.0376 18.62 35.7443 18.6067 35.4509 18.58C35.1709 18.5667 34.8843 18.5467 34.5909 18.52V16.18C34.8576 16.2067 35.1309 16.2333 35.4109 16.26C35.6909 16.2867 35.9709 16.2933 36.2509 16.28C36.6243 16.24 36.8976 16.0933 37.0709 15.84C37.2576 15.5867 37.3509 15.3067 37.3509 15C37.3509 14.7733 37.3109 14.56 37.2309 14.36L33.6109 4.66H36.6309L38.9709 11.74H39.0109L41.2709 4.66H44.2109L39.8909 16.28ZM53.162 11.64C52.762 12.7067 52.1687 13.5733 51.382 14.24C50.6087 14.9067 49.6354 15.24 48.462 15.24C47.7554 15.24 47.1487 15.1333 46.642 14.92C46.1487 14.6933 45.742 14.3867 45.422 14C45.102 13.6 44.8687 13.1333 44.722 12.6C44.5754 12.0667 44.502 11.48 44.502 10.84C44.502 10.04 44.6354 9.26 44.902 8.5C45.1687 7.74 45.542 7.06 46.022 6.46C46.5154 5.86 47.102 5.38 47.782 5.02C48.4754 4.66 49.2354 4.48 50.062 4.48C50.5954 4.48 51.0887 4.56667 51.542 4.74C52.0087 4.9 52.4087 5.13333 52.742 5.44C53.0754 5.73333 53.3287 6.09333 53.502 6.52C53.6754 6.93333 53.742 7.4 53.702 7.92H52.942C52.942 7.04 52.682 6.36 52.162 5.88C51.6554 5.38667 50.9554 5.14 50.062 5.14C49.3154 5.14 48.642 5.31333 48.042 5.66C47.4554 5.99333 46.9554 6.43333 46.542 6.98C46.1287 7.52667 45.8087 8.14 45.582 8.82C45.3687 9.48667 45.262 10.1467 45.262 10.8C45.262 11.2933 45.322 11.7667 45.442 12.22C45.562 12.6733 45.7487 13.08 46.002 13.44C46.2554 13.7867 46.5754 14.0667 46.962 14.28C47.362 14.48 47.8354 14.58 48.382 14.58C49.342 14.58 50.1487 14.3133 50.802 13.78C51.4687 13.2333 51.9754 12.52 52.322 11.64H53.162ZM55.6131 7.68C55.8798 6.53333 56.3931 5.71333 57.1531 5.22C57.9131 4.72667 58.8731 4.48 60.0331 4.48C60.2865 4.48 60.5931 4.51333 60.9531 4.58C61.3265 4.63333 61.6798 4.75333 62.0131 4.94C62.3465 5.11333 62.6265 5.36 62.8531 5.68C63.0931 5.98667 63.2131 6.4 63.2131 6.92C63.2131 7.14667 63.1798 7.44667 63.1131 7.82C63.0465 8.18 62.9731 8.54 62.8931 8.9C62.8131 9.26 62.7331 9.58667 62.6531 9.88C62.5865 10.1733 62.5465 10.36 62.5331 10.44C62.4665 10.7067 62.3931 11 62.3131 11.32C62.2331 11.64 62.1598 11.9533 62.0931 12.26C62.0265 12.5667 61.9665 12.8533 61.9131 13.12C61.8731 13.3733 61.8531 13.5733 61.8531 13.72C61.8531 13.9067 61.8998 14.0667 61.9931 14.2C62.0865 14.32 62.2265 14.38 62.4131 14.38C62.5198 14.38 62.6331 14.3667 62.7531 14.34C62.8731 14.3133 62.9865 14.2867 63.0931 14.26L62.9731 14.94C62.8265 14.98 62.6731 15.0067 62.5131 15.02C62.3665 15.0333 62.2265 15.04 62.0931 15.04C61.7465 15.04 61.4931 14.92 61.3331 14.68C61.1731 14.44 61.0931 14.2067 61.0931 13.98C61.0931 13.8733 61.1131 13.74 61.1531 13.58C61.1931 13.4067 61.2265 13.2533 61.2531 13.12H61.2131C61.0131 13.4933 60.7598 13.8133 60.4531 14.08C60.1465 14.3467 59.8198 14.5667 59.4731 14.74C59.1265 14.9133 58.7665 15.04 58.3931 15.12C58.0198 15.2 57.6665 15.24 57.3331 15.24C56.8931 15.24 56.4798 15.1867 56.0931 15.08C55.7065 14.9867 55.3665 14.8333 55.0731 14.62C54.7931 14.3933 54.5731 14.1067 54.4131 13.76C54.2398 13.4133 54.1531 12.9867 54.1531 12.48C54.1531 11.8267 54.2798 11.2933 54.5331 10.88C54.7865 10.4667 55.1198 10.1467 55.5331 9.92C55.9598 9.69333 56.4398 9.54 56.9731 9.46C57.5198 9.36667 58.0865 9.31333 58.6731 9.3C59.3931 9.27333 59.9931 9.22667 60.4731 9.16C60.9531 9.08 61.3398 8.96667 61.6331 8.82C61.9265 8.66 62.1331 8.45333 62.2531 8.2C62.3865 7.94667 62.4531 7.62667 62.4531 7.24C62.4531 6.6 62.2531 6.09333 61.8531 5.72C61.4665 5.33333 60.8065 5.14 59.8731 5.14C58.9531 5.14 58.1998 5.34667 57.6131 5.76C57.0265 6.16 56.6198 6.8 56.3931 7.68H55.6131ZM62.0531 9.2H62.0131C61.8665 9.34667 61.6598 9.46667 61.3931 9.56C61.1265 9.64 60.8398 9.71333 60.5331 9.78C60.2265 9.83333 59.9131 9.87333 59.5931 9.9C59.2865 9.92667 59.0265 9.94667 58.8131 9.96C58.3331 9.97333 57.8598 10.0067 57.3931 10.06C56.9265 10.1133 56.5065 10.2267 56.1331 10.4C55.7731 10.5733 55.4798 10.8267 55.2531 11.16C55.0265 11.48 54.9131 11.92 54.9131 12.48C54.9131 12.8667 54.9865 13.1933 55.1331 13.46C55.2798 13.7267 55.4731 13.9467 55.7131 14.12C55.9531 14.28 56.2265 14.4 56.5331 14.48C56.8531 14.5467 57.1865 14.58 57.5331 14.58C58.1465 14.58 58.6798 14.4733 59.1331 14.26C59.5998 14.0467 59.9931 13.76 60.3131 13.4C60.6465 13.0267 60.9198 12.6 61.1331 12.12C61.3598 11.64 61.5465 11.1333 61.6931 10.6L62.0531 9.2ZM67.2931 0.719999H68.0531L65.0731 15H64.3131L67.2931 0.719999ZM76.873 11.64C76.473 12.7067 75.8796 13.5733 75.093 14.24C74.3196 14.9067 73.3463 15.24 72.173 15.24C71.4663 15.24 70.8596 15.1333 70.353 14.92C69.8596 14.6933 69.453 14.3867 69.133 14C68.813 13.6 68.5796 13.1333 68.433 12.6C68.2863 12.0667 68.213 11.48 68.213 10.84C68.213 10.04 68.3463 9.26 68.613 8.5C68.8796 7.74 69.253 7.06 69.733 6.46C70.2263 5.86 70.813 5.38 71.493 5.02C72.1863 4.66 72.9463 4.48 73.773 4.48C74.3063 4.48 74.7996 4.56667 75.253 4.74C75.7196 4.9 76.1196 5.13333 76.453 5.44C76.7863 5.73333 77.0396 6.09333 77.213 6.52C77.3863 6.93333 77.453 7.4 77.413 7.92H76.653C76.653 7.04 76.393 6.36 75.873 5.88C75.3663 5.38667 74.6663 5.14 73.773 5.14C73.0263 5.14 72.353 5.31333 71.753 5.66C71.1663 5.99333 70.6663 6.43333 70.253 6.98C69.8396 7.52667 69.5196 8.14 69.293 8.82C69.0796 9.48667 68.973 10.1467 68.973 10.8C68.973 11.2933 69.033 11.7667 69.153 12.22C69.273 12.6733 69.4596 13.08 69.713 13.44C69.9663 13.7867 70.2863 14.0667 70.673 14.28C71.073 14.48 71.5463 14.58 72.093 14.58C73.053 14.58 73.8596 14.3133 74.513 13.78C75.1796 13.2333 75.6863 12.52 76.033 11.64H76.873Z" fill="white"/>
</svg>
